<mxfile host="app.diagrams.net" agent="Mozilla/5.0 (Macintosh; Intel Mac OS X 10_15_7) AppleWebKit/537.36 (KHTML, like Gecko) Chrome/127.0.0.0 Safari/537.36" version="24.7.7">
  <diagram name="第 1 页" id="nH64aU8x-MxZcNjdW5kX">
    <mxGraphModel dx="1060" dy="619" grid="1" gridSize="10" guides="1" tooltips="1" connect="1" arrows="1" fold="1" page="1" pageScale="1" pageWidth="827" pageHeight="1169" math="0" shadow="0">
      <root>
        <mxCell id="0" />
        <mxCell id="1" parent="0" />
        <mxCell id="WFqSCaVt50iv7GG1wSk8-45" value="" style="endArrow=none;dashed=1;html=1;rounded=0;" edge="1" parent="1">
          <mxGeometry width="50" height="50" relative="1" as="geometry">
            <mxPoint x="1035" y="390" as="sourcePoint" />
            <mxPoint x="1034.69" y="130" as="targetPoint" />
          </mxGeometry>
        </mxCell>
        <mxCell id="WFqSCaVt50iv7GG1wSk8-1" value="" style="edgeStyle=orthogonalEdgeStyle;rounded=0;orthogonalLoop=1;jettySize=auto;html=1;fontSize=15;" edge="1" parent="1" source="WFqSCaVt50iv7GG1wSk8-2" target="WFqSCaVt50iv7GG1wSk8-8">
          <mxGeometry relative="1" as="geometry" />
        </mxCell>
        <mxCell id="WFqSCaVt50iv7GG1wSk8-2" value="&lt;font color=&quot;#000000&quot; style=&quot;font-size: 15px;&quot;&gt;合成场景描述&lt;/font&gt;" style="whiteSpace=wrap;html=1;rounded=1;fontSize=15;fillColor=#76D5E8;strokeColor=none;fontColor=#FFFFFF;" vertex="1" parent="1">
          <mxGeometry x="80" y="620" width="150" height="60" as="geometry" />
        </mxCell>
        <mxCell id="WFqSCaVt50iv7GG1wSk8-3" style="edgeStyle=orthogonalEdgeStyle;rounded=0;orthogonalLoop=1;jettySize=auto;html=1;exitX=1;exitY=0.5;exitDx=0;exitDy=0;entryX=0;entryY=0.5;entryDx=0;entryDy=0;fontSize=15;" edge="1" parent="1" source="WFqSCaVt50iv7GG1wSk8-4" target="WFqSCaVt50iv7GG1wSk8-10">
          <mxGeometry relative="1" as="geometry" />
        </mxCell>
        <mxCell id="WFqSCaVt50iv7GG1wSk8-4" value="&lt;font color=&quot;#000000&quot; style=&quot;font-size: 15px;&quot;&gt;图片视频素材&lt;/font&gt;" style="whiteSpace=wrap;html=1;rounded=1;fontSize=15;fillColor=#76D5E8;strokeColor=none;fontColor=#FFFFFF;" vertex="1" parent="1">
          <mxGeometry x="80" y="710" width="150" height="60" as="geometry" />
        </mxCell>
        <mxCell id="WFqSCaVt50iv7GG1wSk8-5" value="快进 &amp;amp; 解封装解码" style="edgeStyle=orthogonalEdgeStyle;rounded=0;orthogonalLoop=1;jettySize=auto;html=1;exitX=1;exitY=0.5;exitDx=0;exitDy=0;entryX=0.5;entryY=1;entryDx=0;entryDy=0;fontSize=15;" edge="1" parent="1" source="WFqSCaVt50iv7GG1wSk8-6" target="WFqSCaVt50iv7GG1wSk8-10">
          <mxGeometry relative="1" as="geometry" />
        </mxCell>
        <mxCell id="WFqSCaVt50iv7GG1wSk8-6" value="&lt;font color=&quot;#000000&quot; style=&quot;font-size: 15px;&quot;&gt;进度条点击第x秒&lt;/font&gt;" style="whiteSpace=wrap;html=1;rounded=1;fontSize=15;fillColor=#76D5E8;strokeColor=none;fontColor=#FFFFFF;" vertex="1" parent="1">
          <mxGeometry x="80" y="800" width="150" height="60" as="geometry" />
        </mxCell>
        <mxCell id="WFqSCaVt50iv7GG1wSk8-7" value="变换、滤镜、叠加" style="edgeStyle=orthogonalEdgeStyle;rounded=0;orthogonalLoop=1;jettySize=auto;html=1;exitX=1;exitY=0.5;exitDx=0;exitDy=0;entryX=0;entryY=0.5;entryDx=0;entryDy=0;fontSize=15;" edge="1" parent="1" source="WFqSCaVt50iv7GG1wSk8-8" target="WFqSCaVt50iv7GG1wSk8-11">
          <mxGeometry relative="1" as="geometry" />
        </mxCell>
        <mxCell id="WFqSCaVt50iv7GG1wSk8-8" value="Filtergraph" style="whiteSpace=wrap;html=1;rounded=1;fontSize=15;fillColor=#FFE1C9;strokeColor=none;" vertex="1" parent="1">
          <mxGeometry x="250" y="420" width="150" height="60" as="geometry" />
        </mxCell>
        <mxCell id="WFqSCaVt50iv7GG1wSk8-9" value="多个原始帧" style="edgeStyle=orthogonalEdgeStyle;rounded=0;orthogonalLoop=1;jettySize=auto;html=1;exitX=0.5;exitY=0;exitDx=0;exitDy=0;entryX=0.5;entryY=1;entryDx=0;entryDy=0;fontSize=15;" edge="1" parent="1" source="WFqSCaVt50iv7GG1wSk8-10" target="WFqSCaVt50iv7GG1wSk8-8">
          <mxGeometry x="0.037" relative="1" as="geometry">
            <mxPoint as="offset" />
          </mxGeometry>
        </mxCell>
        <mxCell id="WFqSCaVt50iv7GG1wSk8-10" value="原始帧" style="whiteSpace=wrap;html=1;rounded=1;fontSize=15;fillColor=#FFE1C9;strokeColor=none;" vertex="1" parent="1">
          <mxGeometry x="280" y="710" width="150" height="60" as="geometry" />
        </mxCell>
        <mxCell id="WFqSCaVt50iv7GG1wSk8-11" value="预览结果帧" style="whiteSpace=wrap;html=1;rounded=1;fontSize=15;fillColor=#71E08E;strokeColor=none;fontColor=#000000;gradientColor=none;" vertex="1" parent="1">
          <mxGeometry x="580" y="620" width="150" height="60" as="geometry" />
        </mxCell>
        <mxCell id="WFqSCaVt50iv7GG1wSk8-12" value="合成结果&lt;div&gt;（结果文件、进度、日志）&lt;/div&gt;" style="whiteSpace=wrap;html=1;rounded=1;fontSize=15;fillColor=#71E08E;strokeColor=none;fontColor=#000000;gradientColor=none;" vertex="1" parent="1">
          <mxGeometry x="565" y="255" width="180" height="60" as="geometry" />
        </mxCell>
        <mxCell id="WFqSCaVt50iv7GG1wSk8-22" style="edgeStyle=orthogonalEdgeStyle;rounded=0;orthogonalLoop=1;jettySize=auto;html=1;exitX=1;exitY=0.5;exitDx=0;exitDy=0;" edge="1" parent="1" source="WFqSCaVt50iv7GG1wSk8-14" target="WFqSCaVt50iv7GG1wSk8-18">
          <mxGeometry relative="1" as="geometry" />
        </mxCell>
        <mxCell id="WFqSCaVt50iv7GG1wSk8-14" value="&lt;font color=&quot;#000000&quot; style=&quot;font-size: 15px;&quot;&gt;合成场景JSON&lt;/font&gt;" style="whiteSpace=wrap;html=1;rounded=1;fontSize=15;fillColor=#76D5E8;strokeColor=none;fontColor=#FFFFFF;" vertex="1" parent="1">
          <mxGeometry x="55" y="220" width="180" height="60" as="geometry" />
        </mxCell>
        <mxCell id="WFqSCaVt50iv7GG1wSk8-23" style="edgeStyle=orthogonalEdgeStyle;rounded=0;orthogonalLoop=1;jettySize=auto;html=1;exitX=1;exitY=0.5;exitDx=0;exitDy=0;entryX=0;entryY=0.5;entryDx=0;entryDy=0;" edge="1" parent="1" source="WFqSCaVt50iv7GG1wSk8-15" target="WFqSCaVt50iv7GG1wSk8-18">
          <mxGeometry relative="1" as="geometry" />
        </mxCell>
        <mxCell id="WFqSCaVt50iv7GG1wSk8-15" value="&lt;font color=&quot;#000000&quot; style=&quot;font-size: 15px;&quot;&gt;合成素材&lt;/font&gt;" style="whiteSpace=wrap;html=1;rounded=1;fontSize=15;fillColor=#76D5E8;strokeColor=none;fontColor=#FFFFFF;" vertex="1" parent="1">
          <mxGeometry x="55" y="290" width="180" height="60" as="geometry" />
        </mxCell>
        <mxCell id="WFqSCaVt50iv7GG1wSk8-16" value="执行模块" style="whiteSpace=wrap;html=1;rounded=1;fontSize=15;fillColor=#FFE1C9;strokeColor=none;" vertex="1" parent="1">
          <mxGeometry x="310" y="220" width="180" height="60" as="geometry" />
        </mxCell>
        <mxCell id="WFqSCaVt50iv7GG1wSk8-17" value="翻译模块" style="whiteSpace=wrap;html=1;rounded=1;fontSize=15;fillColor=#FFE1C9;strokeColor=none;" vertex="1" parent="1">
          <mxGeometry x="310" y="290" width="180" height="60" as="geometry" />
        </mxCell>
        <mxCell id="WFqSCaVt50iv7GG1wSk8-24" style="edgeStyle=orthogonalEdgeStyle;rounded=0;orthogonalLoop=1;jettySize=auto;html=1;exitX=1;exitY=0.5;exitDx=0;exitDy=0;" edge="1" parent="1" source="WFqSCaVt50iv7GG1wSk8-18" target="WFqSCaVt50iv7GG1wSk8-12">
          <mxGeometry relative="1" as="geometry" />
        </mxCell>
        <UserObject label="" tooltip="" id="WFqSCaVt50iv7GG1wSk8-18">
          <mxCell style="rounded=1;whiteSpace=wrap;html=1;fillColor=none;strokeColor=#ffe1c9;strokeWidth=3;" vertex="1" parent="1">
            <mxGeometry x="300" y="210" width="200" height="150" as="geometry" />
          </mxCell>
        </UserObject>
        <mxCell id="WFqSCaVt50iv7GG1wSk8-19" value="视频合成SDK" style="text;html=1;align=center;verticalAlign=middle;whiteSpace=wrap;rounded=0;fontSize=15;" vertex="1" parent="1">
          <mxGeometry x="350" y="170" width="100" height="30" as="geometry" />
        </mxCell>
        <mxCell id="WFqSCaVt50iv7GG1wSk8-20" value="输入" style="text;html=1;align=center;verticalAlign=middle;whiteSpace=wrap;rounded=0;fontSize=15;" vertex="1" parent="1">
          <mxGeometry x="95" y="170" width="100" height="30" as="geometry" />
        </mxCell>
        <mxCell id="WFqSCaVt50iv7GG1wSk8-21" value="输出" style="text;html=1;align=center;verticalAlign=middle;whiteSpace=wrap;rounded=0;fontSize=15;" vertex="1" parent="1">
          <mxGeometry x="605" y="170" width="100" height="30" as="geometry" />
        </mxCell>
        <mxCell id="WFqSCaVt50iv7GG1wSk8-25" value="业务方" style="shape=umlLifeline;perimeter=lifelinePerimeter;whiteSpace=wrap;html=1;container=1;dropTarget=0;collapsible=0;recursiveResize=0;outlineConnect=0;portConstraint=eastwest;newEdgeStyle={&quot;edgeStyle&quot;:&quot;elbowEdgeStyle&quot;,&quot;elbow&quot;:&quot;vertical&quot;,&quot;curved&quot;:0,&quot;rounded&quot;:0};fontSize=15;rounded=1;fillColor=#76d5e8;strokeColor=#76d5e8;" vertex="1" parent="1">
          <mxGeometry x="820" y="90" width="120" height="300" as="geometry" />
        </mxCell>
        <mxCell id="WFqSCaVt50iv7GG1wSk8-26" value="SDK执行模块" style="shape=umlLifeline;perimeter=lifelinePerimeter;whiteSpace=wrap;html=1;container=1;dropTarget=0;collapsible=0;recursiveResize=0;outlineConnect=0;portConstraint=eastwest;newEdgeStyle={&quot;edgeStyle&quot;:&quot;elbowEdgeStyle&quot;,&quot;elbow&quot;:&quot;vertical&quot;,&quot;curved&quot;:0,&quot;rounded&quot;:0};fontSize=15;rounded=1;fillColor=#ffe1c9;strokeColor=#ffe1c9;" vertex="1" parent="1">
          <mxGeometry x="970" y="90" width="130" height="300" as="geometry" />
        </mxCell>
        <mxCell id="WFqSCaVt50iv7GG1wSk8-39" value="合成中..." style="html=1;points=[[0,0,0,0,5],[0,1,0,0,-5],[1,0,0,0,5],[1,1,0,0,-5]];perimeter=orthogonalPerimeter;outlineConnect=0;targetShapes=umlLifeline;portConstraint=eastwest;newEdgeStyle={&quot;curved&quot;:0,&quot;rounded&quot;:0};fontSize=15;rounded=1;fillColor=#ffe1c9;strokeColor=none;" vertex="1" parent="WFqSCaVt50iv7GG1wSk8-26">
          <mxGeometry y="200" width="130" height="40" as="geometry" />
        </mxCell>
        <mxCell id="WFqSCaVt50iv7GG1wSk8-27" value="SDK翻译模块" style="shape=umlLifeline;perimeter=lifelinePerimeter;whiteSpace=wrap;html=1;container=1;dropTarget=0;collapsible=0;recursiveResize=0;outlineConnect=0;portConstraint=eastwest;newEdgeStyle={&quot;edgeStyle&quot;:&quot;elbowEdgeStyle&quot;,&quot;elbow&quot;:&quot;vertical&quot;,&quot;curved&quot;:0,&quot;rounded&quot;:0};fontSize=15;rounded=1;fillColor=#ffe1c9;strokeColor=#ffe1c9;" vertex="1" parent="1">
          <mxGeometry x="1130" y="90" width="120" height="300" as="geometry" />
        </mxCell>
        <mxCell id="WFqSCaVt50iv7GG1wSk8-28" value="&lt;font style=&quot;background-color: rgb(110, 199, 217); font-size: 13px;&quot;&gt;- 合成场景JSON&lt;/font&gt;&lt;div style=&quot;font-size: 13px;&quot;&gt;&lt;font style=&quot;background-color: rgb(110, 199, 217); font-size: 13px;&quot;&gt;- 素材文件&lt;/font&gt;&lt;/div&gt;" style="html=1;verticalAlign=bottom;startArrow=oval;startFill=1;endArrow=block;startSize=8;curved=0;rounded=0;fontSize=15;align=left;" edge="1" parent="1" source="WFqSCaVt50iv7GG1wSk8-25" target="WFqSCaVt50iv7GG1wSk8-26">
          <mxGeometry x="-0.607" width="60" relative="1" as="geometry">
            <mxPoint x="900" y="180" as="sourcePoint" />
            <mxPoint x="960" y="179.99999999999997" as="targetPoint" />
            <Array as="points">
              <mxPoint x="970" y="190" />
            </Array>
            <mxPoint as="offset" />
          </mxGeometry>
        </mxCell>
        <mxCell id="WFqSCaVt50iv7GG1wSk8-31" value="&lt;font style=&quot;font-size: 13px;&quot;&gt;JSON&lt;/font&gt;" style="html=1;verticalAlign=bottom;startArrow=oval;startFill=1;endArrow=block;startSize=8;curved=0;rounded=0;fontSize=15;" edge="1" parent="1" source="WFqSCaVt50iv7GG1wSk8-26" target="WFqSCaVt50iv7GG1wSk8-27">
          <mxGeometry x="-0.0043" width="60" relative="1" as="geometry">
            <mxPoint x="1350" y="480" as="sourcePoint" />
            <mxPoint x="1410" y="480" as="targetPoint" />
            <Array as="points">
              <mxPoint x="1110" y="220" />
            </Array>
            <mxPoint as="offset" />
          </mxGeometry>
        </mxCell>
        <mxCell id="WFqSCaVt50iv7GG1wSk8-36" value="&lt;font style=&quot;font-size: 13px;&quot;&gt;FFmpeg命令&lt;/font&gt;" style="html=1;verticalAlign=bottom;startArrow=oval;startFill=1;endArrow=block;startSize=8;curved=0;rounded=0;fontSize=15;" edge="1" parent="1" source="WFqSCaVt50iv7GG1wSk8-27" target="WFqSCaVt50iv7GG1wSk8-26">
          <mxGeometry x="-0.0115" width="60" relative="1" as="geometry">
            <mxPoint x="1120" y="290" as="sourcePoint" />
            <mxPoint x="1180" y="290" as="targetPoint" />
            <Array as="points">
              <mxPoint x="1110" y="260" />
            </Array>
            <mxPoint as="offset" />
          </mxGeometry>
        </mxCell>
        <mxCell id="WFqSCaVt50iv7GG1wSk8-41" value="&lt;span style=&quot;background-color: rgb(113, 224, 142); font-size: 13px;&quot;&gt;&lt;font style=&quot;font-size: 13px;&quot;&gt;- 进度&lt;/font&gt;&lt;/span&gt;&lt;div style=&quot;font-size: 13px;&quot;&gt;&lt;span style=&quot;background-color: rgb(113, 224, 142);&quot;&gt;&lt;font style=&quot;font-size: 13px;&quot;&gt;- 日志&lt;/font&gt;&lt;/span&gt;&lt;/div&gt;" style="html=1;verticalAlign=bottom;startArrow=oval;startFill=1;endArrow=block;startSize=8;curved=0;rounded=0;fontSize=15;" edge="1" parent="1" source="WFqSCaVt50iv7GG1wSk8-39" target="WFqSCaVt50iv7GG1wSk8-25">
          <mxGeometry x="-0.1171" width="60" relative="1" as="geometry">
            <mxPoint x="1020" y="260" as="sourcePoint" />
            <mxPoint x="1080" y="260" as="targetPoint" />
            <mxPoint as="offset" />
          </mxGeometry>
        </mxCell>
        <mxCell id="WFqSCaVt50iv7GG1wSk8-42" value="&lt;span style=&quot;background-color: rgb(113, 224, 142);&quot;&gt;&lt;font style=&quot;font-size: 13px;&quot;&gt;合成结果视频&lt;/font&gt;&lt;/span&gt;" style="html=1;verticalAlign=bottom;startArrow=oval;startFill=1;endArrow=block;startSize=8;curved=0;rounded=0;fontSize=15;" edge="1" parent="1" source="WFqSCaVt50iv7GG1wSk8-26" target="WFqSCaVt50iv7GG1wSk8-25">
          <mxGeometry x="-0.0043" width="60" relative="1" as="geometry">
            <mxPoint x="980" y="370" as="sourcePoint" />
            <mxPoint x="1040" y="370" as="targetPoint" />
            <Array as="points">
              <mxPoint x="960" y="360" />
            </Array>
            <mxPoint as="offset" />
          </mxGeometry>
        </mxCell>
        <mxCell id="WFqSCaVt50iv7GG1wSk8-43" value="" style="endArrow=none;dashed=1;html=1;rounded=0;" edge="1" parent="1">
          <mxGeometry width="50" height="50" relative="1" as="geometry">
            <mxPoint x="879.62" y="390" as="sourcePoint" />
            <mxPoint x="879.62" y="130" as="targetPoint" />
          </mxGeometry>
        </mxCell>
        <mxCell id="WFqSCaVt50iv7GG1wSk8-46" value="" style="endArrow=none;dashed=1;html=1;rounded=0;" edge="1" parent="1">
          <mxGeometry width="50" height="50" relative="1" as="geometry">
            <mxPoint x="1189.69" y="390" as="sourcePoint" />
            <mxPoint x="1189.69" y="130" as="targetPoint" />
          </mxGeometry>
        </mxCell>
      </root>
    </mxGraphModel>
  </diagram>
</mxfile>
